<?xml version="1.0" encoding="UTF-8" standalone="no" ?>
<!DOCTYPE svg PUBLIC "-//W3C//DTD SVG 1.1//EN" "http://www.w3.org/Graphics/SVG/1.1/DTD/svg11.dtd">
<svg xmlns="http://www.w3.org/2000/svg" xmlns:xlink="http://www.w3.org/1999/xlink" version="1.1" width="500" height="500" viewBox="0 0 500 500" xml:space="preserve">
<desc>Created with Fabric.js 4.6.0</desc>
<defs>
</defs>
<g transform="matrix(0.75 0 0 0.75 254.44 237.2)" id="RcHodHVFFMJi5CNRnL0eD"  >
<path style="stroke: none; stroke-width: 1; stroke-dasharray: none; stroke-linecap: butt; stroke-dashoffset: 0; stroke-linejoin: miter; stroke-miterlimit: 4; fill: rgb(255,255,255); fill-rule: nonzero; opacity: 1;" vector-effect="non-scaling-stroke"  transform=" translate(0, 0)" d="M 32 -208 C 32 -234.51 53.5 -256 80 -256 C 106.5 -256 128 -234.51 128 -208 C 128 -181.49 106.5 -160 80 -160 C 53.5 -160 32 -181.49 32 -208 z M 160 -96.9 C 177.7 -96.9 192 -81.7 192 -64.9 C 192 -46.300000000000004 177.7 -32.900000000000006 160 -32.900000000000006 L 96 -32.900000000000006 C 88.7 -32.900000000000006 81.7 -34.50000000000001 76 -39.900000000000006 L 35.3 -71.60000000000001 L -25 -23.10000000000001 L 17.799999999999997 5.3999999999999915 C 26.699999999999996 11.299999999999992 31.999999999999996 21.29999999999999 31.999999999999996 31.999999999999993 L 31.999999999999996 160 C 31.999999999999996 177.7 17.699999999999996 192 -3.552713678800501e-15 192 C -17.700000000000003 192 -32 177.7 -32 160 L -32 49.099999999999994 L -92.5 10.799999999999997 C -125.3 -10.900000000000002 -127.5 -57.10000000000001 -96.8 -80.8 L -13.700000000000003 -145.1 C 3.799999999999997 -158.54999999999998 28.099999999999994 -158.42 45.4 -144.79999999999998 L 107.19999999999999 -96.89999999999998 z M -64 128 C -64 198.7 -121.3 256 -192 256 C -262.69 256 -320 198.7 -320 128 C -320 57.3 -262.69 0 -192 0 C -121.3 0 -64 57.3 -64 128 z M -192 56 C -231.76 56 -264 88.2 -264 128 C -264 167.8 -231.76 200 -192 200 C -152.2 200 -120 167.8 -120 128 C -120 88.2 -152.2 56 -192 56 z M 320 128 C 320 198.7 262.7 256 192 256 C 121.3 256 64 198.7 64 128 C 64 57.3 121.3 0 192 0 C 262.7 0 320 57.3 320 128 z M 192 56 C 152.2 56 120 88.2 120 128 C 120 167.8 152.2 200 192 200 C 231.8 200 264 167.8 264 128 C 264 88.2 231.8 56 192 56 z" stroke-linecap="round" />
</g>
</svg>